HIERARCHY
ROOT Hips
{
	OFFSET 0.00000 0.00000 0.00000
	CHANNELS 6 Xposition Yposition Zposition Yrotation Zrotation Xrotation 
	JOINT Lumbar
	{
		OFFSET 0 0 0
		CHANNELS 3 Zrotation Xrotation Yrotation
		JOINT Neck
		{
			OFFSET 0.00 0.2701 0.00
			CHANNELS 3 Zrotation Xrotation Yrotation
			End Site
			{
				OFFSET 0.00 0.1379 0.00
			}
		}
		JOINT RightShoulder
		{
			OFFSET 0.0119 0.2289 0.1181
			CHANNELS 3 Zrotation Xrotation Yrotation
			JOINT RightElbow
			{
				OFFSET 0.00 -0.1475 0.00
				CHANNELS 2 Zrotation Yrotation
				JOINT RightWrist
				{
					OFFSET 0.00 -0.1605 0.00
					CHANNELS 2 Zrotation Xrotation
					End Site
					{
						OFFSET 0.0040 -0.1068 0.0006
					}
				}
			}
		}
		JOINT LeftShoulder
		{
			OFFSET 0.0119 0.2289 -0.1181
			CHANNELS 3 Zrotation Xrotation Yrotation
			JOINT LeftElbow
			{
				OFFSET 0.00 -0.1475 0.00
				CHANNELS 2 Zrotation Yrotation
				JOINT LeftWrist
				{
					OFFSET 0.00 -0.1605 0.00
					CHANNELS 2 Zrotation Xrotation
					End Site
					{
						OFFSET 0.0040 -0.1068 -0.0006
					}
				}
			}
		}
	}
	JOINT RightHip
	{
		OFFSET 0.0316 -0.0424 0.0458
		CHANNELS 3 Zrotation Xrotation Yrotation
		JOINT RightKnee
		{
			OFFSET 0.00 -0.2438 0.00
			CHANNELS 1 Zrotation
			JOINT RightAnkle
			{
				OFFSET 0.00 -0.2449 0.00
				CHANNELS 3 Zrotation Xrotation Yrotation
				End Site
				{
					OFFSET 0.1237 -0.0542 0.0051
				}
			}
		}
	}
	JOINT LeftHip
	{
		OFFSET 0.0316 -0.0424 -0.0458
		CHANNELS 3 Zrotation Xrotation Yrotation
		JOINT LeftKnee
		{
			OFFSET 0.00 -0.2438 0.00
			CHANNELS 1 Zrotation
			JOINT LeftAnkle
			{
				OFFSET 0.00 -0.2449 0.00
				CHANNELS 3 Zrotation Xrotation Yrotation
				End Site
				{
					OFFSET 0.1237 -0.0542 -0.0051
				}
			}
		}
	}
}
MOTION
Frames: 31
Frame Time: 0.02
-0.00103 8e-05 0.00011 176.4373 -46.55873 2.0809 58.49587 -0.06587 0.67653 -4.96613 -1.59245 -0.1327 147.55378 -71.30782 -65.2099 12.91393 88.98226 0.20612 -10.16455 150.6899 72.96909 78.21782 9.73366 -43.91726 9.92234 7.38504 48.21706 -0.21637 -7.00555 -18.87763 -7.58018 -5.16454 -3.43942 52.0725 0.36937 0.0357 -24.54285 -8.89401 5.60815 3.78147
-0.00062 8e-05 0.00045 176.3999 -46.51861 2.0634 58.44994 -0.06799 0.70822 -5.12492 -1.5677 -0.13301 147.58666 -71.3163 -65.17726 12.88387 88.97515 0.20373 -10.13754 150.59873 72.88766 78.85883 9.59469 -48.65959 9.04432 7.72987 48.22637 -0.2436 -7.03946 -18.87939 -7.57808 -5.16011 -3.43681 52.07137 0.4451 0.47692 -24.54906 -8.85162 5.58234 3.76241
-0.00021 9e-05 0.00079 176.36249 -46.47866 2.04586 58.40401 -0.07011 0.73984 -5.28331 -1.54298 -0.13332 147.61914 -71.32485 -65.14517 12.85381 88.96814 0.20163 -10.11032 150.50764 72.80636 79.49913 9.45592 -53.38362 8.16968 8.07276 48.23586 -0.2708 -7.07377 -18.88119 -7.57593 -5.15565 -3.43418 52.07042 0.52075 0.91723 -24.55525 -8.80934 5.5566 3.7434
0.0002 0.0001 0.00113 176.3252 -46.43867 2.02841 58.35821 -0.07221 0.77145 -5.44164 -1.5183 -0.13362 147.65206 -71.3333 -65.11266 12.82383 88.96108 0.1993 -10.08336 150.41669 72.72511 80.13849 9.31731 -58.1106 7.29451 8.41637 48.24516 -0.29797 -7.10767 -18.88295 -7.57383 -5.15123 -3.43158 52.06932 0.59627 1.35719 -24.56144 -8.76707 5.53087 3.7244
0.00061 0.0001 0.00147 176.28795 -46.3985 2.011 58.31242 -0.07434 0.80307 -5.60028 -1.49361 -0.13393 147.68496 -71.34169 -65.07956 12.79386 88.95383 0.19657 -10.05669 150.32583 72.6439 80.77777 9.17871 -62.85765 6.41562 8.76232 48.25424 -0.32512 -7.14097 -18.88466 -7.57177 -5.14687 -3.42901 52.06799 0.67182 1.79785 -24.56763 -8.72469 5.50508 3.70535
0.00103 0.00011 0.0018 176.25017 -46.35903 1.9932 58.26619 -0.07646 0.83466 -5.75814 -1.46882 -0.13425 147.71626 -71.35061 -65.04966 12.76362 88.94732 0.1958 -10.02828 150.23427 72.5625 81.41997 9.03967 -67.53329 5.54992 9.09878 48.26463 -0.35243 -7.17738 -18.88665 -7.56945 -5.14216 -3.42627 52.06785 0.74767 2.23735 -24.57385 -8.68265 5.47944 3.68641
0.00143 0.00011 0.00214 176.21358 -46.31815 1.97626 58.221 -0.07854 0.8664 -5.91747 -1.44426 -0.13453 147.75214 -71.35831 -65.01305 12.734 88.93945 0.19108 -10.0035 150.14402 72.48123 82.05642 8.90137 -72.34607 4.6589 9.4538 48.27225 -0.37947 -7.20757 -18.88803 -7.56766 -5.13817 -3.42387 52.06526 0.82279 2.67882 -24.58 -8.63994 5.45353 3.66728
0.00185 0.00012 0.00248 176.17575 -46.27864 1.95842 58.17467 -0.08073 0.89776 -6.07533 -1.41948 -0.13489 147.78126 -71.36742 -64.98318 12.7037 88.9326 0.19003 -9.97522 150.05296 72.40047 82.69664 8.7629 -77.03495 3.79077 9.792 48.28262 -0.4066 -7.24334 -18.89006 -7.5654 -5.13352 -3.42115 52.06505 0.89869 3.11825 -24.5862 -8.59788 5.42787 3.64833
0.00227 0.00012 0.00282 176.13694 -46.24054 1.93987 58.12761 -0.08276 0.92965 -6.23191 -1.39446 -0.13519 147.81212 -71.37714 -64.95942 12.673 88.92794 0.19338 -9.94321 149.95926 72.3178 83.34806 8.62209 -81.56351 2.95217 10.10846 48.29565 -0.43446 -7.28665 -18.89254 -7.56249 -5.12804 -3.41804 52.06728 0.97518 3.55634 -24.59253 -8.55648 5.40251 3.62958
0.00263 0.00012 0.00316 176.10538 -46.19354 1.92659 58.08671 -0.08485 0.96149 -6.39744 -1.37091 -0.13533 147.86306 -71.38 -64.89411 12.64588 88.91351 0.17119 -9.93428 149.87576 72.23846 83.95491 8.48832 -86.98787 1.94835 10.54645 48.29127 -0.45999 -7.28877 -18.89142 -7.56306 -5.12726 -3.41721 52.05407 1.0472 4.00564 -24.59831 -8.5109 5.37538 3.60961
0.00313 0.00014 0.00348 176.05748 -46.1658 1.90143 58.03159 -0.08736 0.99151 -6.54305 -1.34421 -0.13612 147.85242 -71.39944 -64.92049 12.61042 88.9179 0.20299 -9.87565 149.77396 72.15701 84.6429 8.34384 -90.53932 1.2901 10.73036 48.32492 -0.48926 -7.3763 -18.89855 -7.55645 -5.11662 -3.41155 52.0743 1.1293 4.42896 -24.60511 -8.47437 5.35201 3.59226
0.00397 0.00018 0.00376 175.97248 -46.18753 1.84947 57.94667 -0.08672 1.03199 -6.64109 -1.30884 -0.13628 147.81139 -71.4452 -65.17164 12.55715 88.9965 0.38103 -9.69193 149.5996 72.03608 85.66705 8.13491 -88.75334 1.60878 10.1885 48.45393 -0.53857 -7.71317 -18.92407 -7.52858 -5.07808 -3.39249 52.1804 1.23462 4.8003 -24.61599 -8.4609 5.3389 3.58174
0.00495 0.00023 0.004 175.86931 -46.22921 1.78442 57.84542 -0.08744 1.06761 -6.71719 -1.27007 -0.13751 147.67101 -71.50942 -65.52232 12.49383 89.09486 0.61178 -9.45934 149.41431 71.92393 86.75506 7.92121 -85.11848 2.26545 9.39513 48.62309 -0.58984 -8.13319 -18.95927 -7.49372 -5.02972 -3.36856 52.32121 1.35113 5.14235 -24.62768 -8.45683 5.32958 3.5739
0.00589 0.00029 0.00424 175.76982 -46.264 1.72166 57.74603 -0.09018 1.09555 -6.79954 -1.23322 -0.13985 147.50065 -71.57992 -65.84177 12.43274 89.16304 0.82204 -9.23773 149.24438 71.82381 87.7354 7.73322 -82.46524 2.75344 8.73765 48.77941 -0.63381 -8.50516 -18.9921 -7.4632 -4.98649 -3.34702 52.44997 1.46513 5.48472 -24.63809 -8.4496 5.31857 3.56506
0.00673 0.00032 0.00457 175.69095 -46.28973 1.67467 57.67142 -0.08123 1.16589 -6.90016 -1.19583 -0.13558 147.69585 -71.59568 -66.09207 12.38453 89.30004 1.02543 -9.05052 149.01694 71.63691 89.03389 7.44793 -79.2316 3.32095 7.99541 48.91182 -0.7048 -8.91996 -19.01398 -7.42809 -4.94072 -3.32489 52.56299 1.56731 5.88033 -24.6522 -8.43772 5.3074 3.55532
0.00781 0.00041 0.00469 175.56317 -46.33895 1.5913 57.53966 -0.09765 1.14593 -6.95425 -1.15742 -0.1452 147.04519 -71.72086 -66.52285 12.3033 89.32436 1.24604 -8.79626 148.92374 71.65688 89.70239 7.36158 -76.74324 3.78393 7.36144 49.105 -0.72006 -9.26611 -19.06399 -7.40044 -4.89756 -3.30262 52.71711 1.69797 6.16002 -24.659 -8.43771 5.29749 3.5481
0.00948 0.00068 0.00422 175.31816 -46.44897 1.41439 57.26898 -0.17768 0.88681 -6.91289 -1.1289 -0.19405 144.62189 -72.2156 -67.31158 12.16738 88.79369 1.5853 -8.22233 149.05205 72.04411 88.46167 7.84658 -77.00144 4.02741 7.16808 49.44371 -0.58054 -9.39404 -19.16403 -7.39896 -4.86715 -3.28293 52.97509 1.89432 6.11051 -24.64363 -8.46847 5.28993 3.54717
0.01138 0.001 0.00351 175.02151 -46.58179 1.20073 56.93896 -0.28417 0.53658 -6.82012 -1.09745 -0.2566 141.26298 -72.80296 -68.29599 11.99319 88.18195 1.92578 -7.6043 149.33994 72.67927 86.61127 8.52696 -78.03802 4.11912 7.08104 49.84449 -0.3853 -9.45109 -19.29724 -7.40448 -4.83917 -3.26293 53.27322 2.12087 5.94849 -24.62125 -8.51076 5.28356 3.54871
0.0132 0.00128 0.00289 174.74045 -46.70364 1.00134 56.6258 -0.38276 0.22056 -6.73293 -1.05934 -0.31217 137.96292 -73.3051 -69.27222 11.81297 87.77881 2.2088 -7.10978 149.65971 73.3303 85.14377 9.10564 -78.55375 4.18875 6.88834 50.22504 -0.21541 -9.54653 -19.43129 -7.40433 -4.80796 -3.24188 53.55403 2.34025 5.84853 -24.60319 -8.5476 5.27675 3.5491
0.01492 0.00163 0.00237 174.4943 -46.82873 0.81131 56.35306 -0.46467 -0.07043 -6.72074 -1.0541 -0.37107 136.15359 -74.00406 -69.92818 11.7273 86.69894 2.72812 -6.20006 149.55574 73.4293 83.24076 9.7432 -79.67742 4.68096 6.91429 50.57339 -0.04405 -9.62056 -19.49662 -7.41463 -4.78522 -3.22564 53.83309 2.53226 5.701 -24.58017 -8.58577 5.26958 3.54963
0.01689 0.00186 0.00158 174.16057 -46.95227 0.59378 55.98436 -0.58674 -0.42861 -6.53955 -0.98067 -0.42611 131.08419 -74.29715 -71.27487 11.44072 86.94927 2.76215 -6.11601 150.35055 74.74894 82.08791 10.29889 -79.78516 4.21952 6.53171 51.00291 0.1357 -9.71905 -19.71516 -7.40471 -4.74574 -3.19945 54.12366 2.7884 5.62669 -24.56604 -8.62366 5.2635 3.55049
0.01953 0.0018 0.00013 173.62296 -47.06529 0.30503 55.34735 -0.82046 -1.00667 -5.91174 -0.7124 -0.46847 116.67583 -73.59751 -74.66051 10.56762 91.41698 1.39326 -8.57913 153.77731 79.26999 83.25336 10.63671 -76.53917 1.45449 4.84111 51.6412 0.34017 -9.91928 -20.32788 -7.33942 -4.658 -3.14516 54.44599 3.21323 5.77769 -24.57629 -8.65921 5.25929 3.55122
0.0224 0.00163 -0.00158 172.99515 -47.17585 -0.00894 54.61937 -1.09234 -1.63908 -5.11452 -0.37742 -0.50621 99.12563 -72.45806 -78.69716 9.50242 97.13604 -0.45224 -11.8303 158.06864 85.02649 85.17665 10.88007 -72.3116 -2.31237 2.76727 52.35817 0.54817 -10.14181 -21.09684 -7.25341 -4.55385 -3.08112 54.77622 3.7015 6.00677 -24.59605 -8.69391 5.25632 3.55229
0.02515 0.0015 -0.0032 172.39115 -47.28802 -0.30895 53.94461 -1.34194 -2.20881 -4.38986 -0.07722 -0.54518 83.38451 -71.42094 -82.32178 8.55087 101.92822 -2.03928 -14.54868 161.83915 90.29439 86.68804 11.12343 -68.78826 -5.82566 0.96909 53.03988 0.74475 -10.34423 -21.80863 -7.17524 -4.45796 -3.02183 55.09662 4.16159 6.20374 -24.61269 -8.72803 5.2533 3.55347
0.02799 0.00141 -0.00474 171.85466 -47.39944 -0.62218 53.21698 -1.61319 -2.94006 -3.68136 0.24369 -0.5883 65.9985 -70.79849 -86.45748 7.4825 108.19754 -3.80466 -17.98963 166.15188 95.28239 88.4614 11.53379 -64.23579 -8.52946 -1.26045 53.7245 0.98529 -10.59135 -22.46575 -7.10303 -4.35793 -2.96065 55.44603 4.6208 6.38444 -24.6241 -8.76621 5.24805 3.55355
0.03067 0.0012 -0.0065 171.16082 -47.51089 -0.91163 52.57944 -1.84821 -3.34912 -2.90055 0.53505 -0.6215 51.30792 -69.20718 -89.66354 6.61765 111.72891 -5.30968 -20.12991 169.54269 101.11967 89.8792 11.59775 -61.54025 -13.10879 -2.67583 54.41741 1.13366 -10.74532 -23.27019 -7.01459 -4.26366 -2.90178 55.7348 5.09552 6.61661 -24.64864 -8.79612 5.24786 3.55603
0.03294 0.00066 -0.00875 170.01984 -47.62841 -1.14468 52.20663 -1.97216 -2.83312 -1.95403 0.7479 -0.62819 44.80931 -65.04565 -90.28444 6.31605 107.0427 -5.99804 -18.34084 170.13838 109.19574 90.11373 10.51044 -64.59336 -23.02124 -1.82314 55.14367 1.03211 -10.69279 -24.46997 -6.87605 -4.17999 -2.8458 55.86681 5.60622 6.99214 -24.70789 -8.79888 5.26001 3.56464
0.03501 -1e-05 -0.01122 168.72998 -47.74492 -1.3502 51.92911 -2.05819 -1.99484 -0.94225 0.9254 -0.62502 41.14133 -59.92668 -89.91731 6.23419 99.62237 -6.4051 -15.24165 169.78241 118.04013 89.97027 9.12404 -69.47918 -34.71078 -0.12828 55.86966 0.83615 -10.53742 -25.80686 -6.72368 -4.10424 -2.79349 55.93471 6.12876 7.41269 -24.77974 -8.79423 5.27744 3.57575
0.03711 -0.00061 -0.01363 167.53174 -47.85819 -1.55761 51.61246 -2.16301 -1.3179 0.03443 1.10586 -0.62648 36.19365 -55.24412 -89.91229 6.08246 93.68617 -6.9277 -12.83908 169.88648 126.41055 90.01352 8.00812 -73.26623 -45.32484 1.23366 56.57602 0.67985 -10.39036 -27.06403 -6.58459 -4.03116 -2.74349 56.02383 6.6398 7.80096 -24.84558 -8.79575 5.29328 3.58593
0.03947 -0.00125 -0.01589 166.23065 -47.98692 -1.80941 51.27505 -2.26403 -0.57937 1.03998 1.34251 -0.62718 31.10275 -50.5308 -90.30785 5.79916 86.7795 -7.51606 -10.04166 169.9056 135.37543 90.02002 6.29404 -78.12195 -57.10709 2.38721 57.36869 0.53834 -10.39884 -28.40265 -6.4158 -3.93172 -2.67678 56.14773 7.17813 8.2453 -24.91366 -8.78503 5.30572 3.59509
0.04125 -0.00184 -0.01851 165.10775 -48.08337 -1.96358 51.00458 -2.36169 0.10719 1.99877 1.4547 -0.62717 27.02934 -45.67245 -89.61233 5.84234 81.22119 -7.89792 -7.73891 169.86301 143.23802 90.00322 5.78976 -81.22486 -66.86233 4.16068 57.98035 0.34236 -10.06795 -29.59903 -6.30518 -3.88845 -2.64536 56.18254 7.6626 8.57814 -24.97906 -8.79853 5.32653 3.60715
